<svg width="348" height="122" viewBox="0 0 348 122" fill="none" xmlns="http://www.w3.org/2000/svg">
<path d="M49.1408 80.5632C47.8267 80.5632 46.5421 80.1735 45.4494 79.4435C44.3567 78.7134 43.5051 77.6756 43.0022 76.4615C42.4993 75.2474 42.3677 73.9115 42.6241 72.6226C42.8805 71.3337 43.5133 70.1498 44.4425 69.2205C45.3718 68.2913 46.5557 67.6585 47.8446 67.4021C49.1335 67.1458 50.4694 67.2773 51.6835 67.7802C52.8976 68.2831 53.9353 69.1348 54.6654 70.2274C55.3955 71.3201 55.7852 72.6047 55.7852 73.9188C55.7832 75.6804 55.0825 77.3693 53.8369 78.6149C52.5913 79.8605 50.9024 80.5612 49.1408 80.5632V80.5632ZM49.1408 68.3819C48.0457 68.3819 46.9752 68.7066 46.0646 69.315C45.1541 69.9234 44.4444 70.7882 44.0253 71.7999C43.6062 72.8117 43.4966 73.925 43.7102 74.9991C43.9239 76.0731 44.4512 77.0597 45.2256 77.8341C45.9999 78.6085 46.9865 79.1358 48.0606 79.3495C49.1347 79.5631 50.248 79.4534 51.2597 79.0344C52.2715 78.6153 53.1363 77.9056 53.7447 76.995C54.3531 76.0845 54.6778 75.014 54.6778 73.9188C54.6762 72.4509 54.0923 71.0435 53.0542 70.0054C52.0162 68.9674 50.6088 68.3835 49.1408 68.3819V68.3819Z" fill="#3F3D56"/>
<path d="M48.9228 65.6134C48.7759 65.6134 48.6351 65.555 48.5312 65.4512C48.4274 65.3473 48.3691 65.2065 48.3691 65.0597V58.6921C48.3691 58.5453 48.4274 58.4044 48.5312 58.3006C48.6351 58.1968 48.7759 58.1384 48.9228 58.1384C49.0696 58.1384 49.2104 58.1968 49.3143 58.3006C49.4181 58.4044 49.4765 58.5453 49.4765 58.6921V65.0597C49.4765 65.2065 49.4181 65.3473 49.3143 65.4512C49.2104 65.555 49.0696 65.6134 48.9228 65.6134Z" fill="#3F3D56"/>
<path d="M40.2816 74.2546H33.9141C33.7672 74.2546 33.6264 74.1963 33.5226 74.0925C33.4187 73.9886 33.3604 73.8478 33.3604 73.7009C33.3604 73.5541 33.4187 73.4133 33.5226 73.3094C33.6264 73.2056 33.7672 73.1472 33.9141 73.1472H40.2816C40.4285 73.1472 40.5693 73.2056 40.6731 73.3094C40.777 73.4133 40.8353 73.5541 40.8353 73.7009C40.8353 73.8478 40.777 73.9886 40.6731 74.0925C40.5693 74.1963 40.4285 74.2546 40.2816 74.2546Z" fill="#3F3D56"/>
<path d="M63.537 74.2546H57.1695C57.0226 74.2546 56.8818 74.1963 56.7779 74.0925C56.6741 73.9886 56.6158 73.8478 56.6158 73.7009C56.6158 73.5541 56.6741 73.4133 56.7779 73.3094C56.8818 73.2056 57.0226 73.1472 57.1695 73.1472H63.537C63.6839 73.1472 63.8247 73.2056 63.9285 73.3094C64.0324 73.4133 64.0907 73.5541 64.0907 73.7009C64.0907 73.8478 64.0324 73.9886 63.9285 74.0925C63.8247 74.1963 63.6839 74.2546 63.537 74.2546Z" fill="#3F3D56"/>
<path d="M56.9945 68.2004C56.8843 68.2004 56.7766 68.1675 56.6852 68.106C56.5937 68.0444 56.5228 67.9569 56.4814 67.8547C56.44 67.7526 56.43 67.6404 56.4527 67.5325C56.4755 67.4247 56.5299 67.3261 56.609 67.2493L59.2756 64.6622C59.381 64.56 59.5227 64.5038 59.6695 64.506C59.8163 64.5083 59.9563 64.5687 60.0585 64.6741C60.1608 64.7795 60.217 64.9212 60.2147 65.0681C60.2125 65.2149 60.152 65.3548 60.0466 65.4571L57.3801 68.0442C57.2769 68.1446 57.1385 68.2007 56.9945 68.2004V68.2004Z" fill="#3F3D56"/>
<path d="M40.7334 68.2004C40.5894 68.2006 40.4511 68.1446 40.3478 68.0442L37.6813 65.4571C37.6291 65.4065 37.5874 65.346 37.5585 65.2793C37.5297 65.2125 37.5143 65.1408 37.5132 65.0681C37.5121 64.9954 37.5253 64.9231 37.5521 64.8556C37.5789 64.788 37.6188 64.7263 37.6694 64.6741C37.72 64.6219 37.7804 64.5802 37.8472 64.5514C37.9139 64.5225 37.9857 64.5071 38.0584 64.506C38.1311 64.5049 38.2033 64.5181 38.2709 64.5449C38.3385 64.5717 38.4002 64.6116 38.4523 64.6622L41.1189 67.2493C41.198 67.3261 41.2525 67.4247 41.2752 67.5325C41.2979 67.6404 41.2879 67.7526 41.2465 67.8547C41.2051 67.9569 41.1342 68.0444 41.0428 68.106C40.9513 68.1675 40.8436 68.2004 40.7334 68.2004Z" fill="#3F3D56"/>
<path d="M38.6205 83.3317C38.5117 83.3317 38.4053 83.2996 38.3146 83.2395C38.224 83.1793 38.153 83.0938 38.1106 82.9936C38.0682 82.8934 38.0563 82.7829 38.0763 82.676C38.0964 82.569 38.1475 82.4703 38.2232 82.3922L40.8898 79.6462C40.9921 79.5408 41.1321 79.4804 41.279 79.4782C41.4258 79.4761 41.5675 79.5324 41.6729 79.6347C41.7783 79.737 41.8387 79.877 41.8408 80.0239C41.843 80.1707 41.7867 80.3124 41.6844 80.4178L39.0178 83.1638C38.9662 83.217 38.9045 83.2593 38.8362 83.2881C38.768 83.317 38.6946 83.3318 38.6205 83.3317V83.3317Z" fill="#3F3D56"/>
<path d="M60.2148 83.8855C60.1409 83.8856 60.0678 83.8709 59.9997 83.8422C59.9317 83.8135 59.8701 83.7714 59.8186 83.7184L56.5983 80.4186C56.5476 80.3666 56.5075 80.3051 56.4805 80.2376C56.4535 80.1701 56.4401 80.0979 56.441 80.0252C56.4419 79.9525 56.4571 79.8807 56.4857 79.8139C56.5144 79.7471 56.5559 79.6866 56.6079 79.6358C56.66 79.585 56.7215 79.545 56.789 79.518C56.8565 79.491 56.9286 79.4776 57.0013 79.4785C57.074 79.4793 57.1458 79.4946 57.2126 79.5232C57.2795 79.5518 57.34 79.5933 57.3908 79.6454L60.611 82.9451C60.6871 83.0231 60.7385 83.1217 60.7588 83.2288C60.7791 83.3358 60.7674 83.4465 60.7251 83.5468C60.6828 83.6472 60.6118 83.7329 60.521 83.7931C60.4303 83.8534 60.3237 83.8855 60.2148 83.8855Z" fill="#3F3D56"/>
<path d="M48.9228 89.4224C48.7759 89.4224 48.6351 89.3641 48.5312 89.2603C48.4274 89.1564 48.3691 89.0156 48.3691 88.8687V82.5012C48.3691 82.3543 48.4274 82.2135 48.5312 82.1097C48.6351 82.0058 48.7759 81.9475 48.9228 81.9475C49.0696 81.9475 49.2104 82.0058 49.3143 82.1097C49.4181 82.2135 49.4765 82.3543 49.4765 82.5012V88.8687C49.4765 89.0156 49.4181 89.1564 49.3143 89.2603C49.2104 89.3641 49.0696 89.4224 48.9228 89.4224Z" fill="#3F3D56"/>
<path d="M121.351 84.4391H102.867C100.979 84.4072 99.1794 83.6348 97.8556 82.2884C96.5317 80.9419 95.7899 79.1293 95.7899 77.2411C95.7899 75.3528 96.5317 73.5402 97.8556 72.1937C99.1794 70.8473 100.979 70.0749 102.867 70.043H104.281C104.982 68.558 106.089 67.3019 107.475 66.42C108.86 65.5381 110.467 65.0665 112.109 65.0597C114.342 65.0801 116.483 65.9502 118.098 67.493C119.712 69.0357 120.679 71.1354 120.8 73.3652H121.351C122.803 73.3891 124.188 73.983 125.207 75.0188C126.226 76.0546 126.797 77.4493 126.797 78.9022C126.797 80.355 126.226 81.7497 125.207 82.7855C124.188 83.8213 122.803 84.4152 121.351 84.4391V84.4391ZM102.867 71.1504C101.273 71.1823 99.7549 71.8381 98.6387 72.9768C97.5226 74.1155 96.8974 75.6465 96.8974 77.2411C96.8974 78.8356 97.5226 80.3666 98.6387 81.5053C99.7549 82.6441 101.273 83.2998 102.867 83.3317H121.351C122.51 83.3078 123.613 82.8306 124.424 82.0025C125.235 81.1744 125.69 80.0613 125.69 78.9022C125.69 77.743 125.235 76.6299 124.424 75.8018C123.613 74.9737 122.51 74.4965 121.351 74.4726H120.263C120.117 74.4726 119.976 74.4142 119.872 74.3104C119.768 74.2065 119.71 74.0657 119.71 73.9189C119.727 71.8837 118.937 69.9247 117.512 68.4715C116.087 67.0183 114.144 66.1896 112.109 66.1671C110.621 66.175 109.168 66.6196 107.93 67.4459C106.692 68.2722 105.724 69.4437 105.146 70.8151C105.104 70.9146 105.033 70.9994 104.942 71.059C104.852 71.1186 104.746 71.1504 104.638 71.1504H102.867Z" fill="#3F3D56"/>
<path d="M183.093 73.9502L182.661 72.9304C183.499 72.5764 184.236 72.0215 184.809 71.3148C185.381 70.608 185.77 69.7713 185.943 68.8783C186.115 67.9854 186.065 67.0638 185.796 66.1949C185.528 65.326 185.05 64.5365 184.404 63.8963C183.758 63.2561 182.964 62.7847 182.093 62.5239C181.222 62.263 180.3 62.2208 179.409 62.4008C178.517 62.5808 177.684 62.9775 176.982 63.556C176.28 64.1344 175.732 64.8768 175.385 65.7175L174.362 65.2952C174.778 64.2864 175.436 63.3956 176.278 62.7015C177.12 62.0074 178.12 61.5313 179.189 61.3153C180.259 61.0993 181.365 61.15 182.411 61.463C183.456 61.776 184.408 62.3415 185.183 63.1098C185.958 63.878 186.532 64.8252 186.854 65.8679C187.176 66.9105 187.237 68.0164 187.03 69.0878C186.823 70.1593 186.356 71.1634 185.669 72.0114C184.983 72.8595 184.098 73.5253 183.093 73.9502V73.9502Z" fill="#3F3D56"/>
<path d="M183.919 84.4391H165.435C163.547 84.4072 161.747 83.6348 160.424 82.2884C159.1 80.9419 158.358 79.1293 158.358 77.2411C158.358 75.3528 159.1 73.5402 160.424 72.1937C161.747 70.8473 163.547 70.0749 165.435 70.043H166.849C167.55 68.558 168.657 67.3019 170.043 66.42C171.428 65.5381 173.035 65.0665 174.677 65.0597C176.91 65.0801 179.051 65.9502 180.666 67.493C182.28 69.0357 183.247 71.1354 183.368 73.3652H183.919C185.371 73.3891 186.756 73.983 187.775 75.0188C188.794 76.0546 189.365 77.4493 189.365 78.9022C189.365 80.355 188.794 81.7497 187.775 82.7855C186.756 83.8213 185.371 84.4152 183.919 84.4391V84.4391ZM165.435 71.1504C163.841 71.1823 162.323 71.8381 161.207 72.9768C160.091 74.1155 159.465 75.6465 159.465 77.2411C159.465 78.8356 160.091 80.3666 161.207 81.5053C162.323 82.6441 163.841 83.2998 165.435 83.3317H183.919C185.078 83.3078 186.181 82.8306 186.992 82.0025C187.803 81.1744 188.258 80.0613 188.258 78.9022C188.258 77.743 187.803 76.6299 186.992 75.8018C186.181 74.9737 185.078 74.4965 183.919 74.4726H182.831C182.685 74.4726 182.544 74.4142 182.44 74.3104C182.336 74.2065 182.278 74.0657 182.278 73.9189C182.295 71.8837 181.505 69.9247 180.08 68.4715C178.655 67.0183 176.712 66.1896 174.677 66.1671C173.189 66.175 171.736 66.6196 170.498 67.4459C169.26 68.2722 168.292 69.4437 167.714 70.8151C167.672 70.9146 167.601 70.9994 167.51 71.059C167.42 71.1186 167.314 71.1504 167.206 71.1504H165.435Z" fill="#3F3D56"/>
<path d="M246.487 81.6706H244.264C244.117 81.6706 243.977 81.6123 243.873 81.5085C243.769 81.4046 243.711 81.2638 243.711 81.1169C243.711 80.9701 243.769 80.8293 243.873 80.7254C243.977 80.6216 244.117 80.5632 244.264 80.5632H246.487C247.646 80.5393 248.749 80.0621 249.56 79.234C250.371 78.4059 250.826 77.2928 250.826 76.1337C250.826 74.9745 250.371 73.8614 249.56 73.0333C248.749 72.2052 247.646 71.728 246.487 71.7041H245.399C245.253 71.7041 245.112 71.6457 245.008 71.5419C244.904 71.438 244.846 71.2972 244.846 71.1504C244.863 69.1152 244.073 67.1562 242.648 65.703C241.223 64.2498 239.28 63.4211 237.245 63.3986C235.757 63.4065 234.304 63.8511 233.066 64.6774C231.828 65.5037 230.86 66.6752 230.282 68.0466C230.24 68.1461 230.169 68.2309 230.078 68.2905C229.988 68.3501 229.882 68.3819 229.774 68.3819H228.003C226.409 68.4138 224.891 69.0696 223.775 70.2083C222.659 71.347 222.033 72.878 222.033 74.4726C222.033 76.0671 222.659 77.5981 223.775 78.7368C224.891 79.8756 226.409 80.5313 228.003 80.5632H229.72C229.867 80.5632 230.007 80.6216 230.111 80.7254C230.215 80.8293 230.273 80.9701 230.273 81.1169C230.273 81.2638 230.215 81.4046 230.111 81.5085C230.007 81.6123 229.867 81.6706 229.72 81.6706H228.003C226.115 81.6387 224.315 80.8663 222.992 79.5199C221.668 78.1734 220.926 76.3608 220.926 74.4726C220.926 72.5843 221.668 70.7717 222.992 69.4252C224.315 68.0788 226.115 67.3064 228.003 67.2745H229.417C230.118 65.7895 231.225 64.5334 232.611 63.6515C233.996 62.7696 235.603 62.298 237.245 62.2912C239.478 62.3116 241.619 63.1817 243.234 64.7245C244.848 66.2672 245.815 68.3669 245.936 70.5967H246.487C247.939 70.6206 249.325 71.2145 250.343 72.2503C251.362 73.2861 251.933 74.6808 251.933 76.1337C251.933 77.5865 251.362 78.9812 250.343 80.017C249.325 81.0528 247.939 81.6467 246.487 81.6706V81.6706Z" fill="#3F3D56"/>
<path d="M237.153 84.0609C237.007 84.0609 236.866 84.0026 236.762 83.8987C236.658 83.7949 236.6 83.6541 236.6 83.5072V77.1397C236.6 76.9928 236.658 76.852 236.762 76.7481C236.866 76.6443 237.007 76.586 237.153 76.586C237.3 76.586 237.441 76.6443 237.545 76.7481C237.649 76.852 237.707 76.9928 237.707 77.1397V83.5072C237.707 83.6541 237.649 83.7949 237.545 83.8987C237.441 84.0026 237.3 84.0609 237.153 84.0609V84.0609Z" fill="#3F3D56"/>
<path d="M233.277 87.3831C233.131 87.3831 232.99 87.3248 232.886 87.2209C232.782 87.1171 232.724 86.9763 232.724 86.8294V80.4619C232.724 80.315 232.782 80.1742 232.886 80.0703C232.99 79.9665 233.131 79.9082 233.277 79.9082C233.424 79.9082 233.565 79.9665 233.669 80.0703C233.773 80.1742 233.831 80.315 233.831 80.4619V86.8294C233.831 86.9763 233.773 87.1171 233.669 87.2209C233.565 87.3248 233.424 87.3831 233.277 87.3831Z" fill="#3F3D56"/>
<path d="M241.029 89.0442C240.882 89.0442 240.742 88.9859 240.638 88.882C240.534 88.7782 240.476 88.6374 240.476 88.4905V82.123C240.476 81.9761 240.534 81.8353 240.638 81.7314C240.742 81.6276 240.882 81.5693 241.029 81.5693C241.176 81.5693 241.317 81.6276 241.421 81.7314C241.525 81.8353 241.583 81.9761 241.583 82.123V88.4905C241.583 88.6373 241.525 88.7782 241.421 88.882C241.317 88.9859 241.176 89.0442 241.029 89.0442V89.0442Z" fill="#3F3D56"/>
<path d="M309.055 81.6706H306.832C306.685 81.6706 306.545 81.6123 306.441 81.5085C306.337 81.4046 306.279 81.2638 306.279 81.1169C306.279 80.9701 306.337 80.8293 306.441 80.7254C306.545 80.6216 306.685 80.5632 306.832 80.5632H309.055C310.214 80.5393 311.317 80.0621 312.128 79.234C312.939 78.4059 313.394 77.2928 313.394 76.1337C313.394 74.9745 312.939 73.8614 312.128 73.0333C311.317 72.2052 310.214 71.728 309.055 71.7041H307.968C307.821 71.7041 307.68 71.6457 307.576 71.5419C307.472 71.438 307.414 71.2972 307.414 71.1504C307.431 69.1152 306.641 67.1562 305.216 65.703C303.791 64.2498 301.848 63.4211 299.813 63.3986C298.325 63.4065 296.872 63.8511 295.634 64.6774C294.396 65.5037 293.428 66.6752 292.85 68.0466C292.808 68.1461 292.737 68.2309 292.646 68.2905C292.556 68.3501 292.45 68.3819 292.342 68.3819H290.571C288.977 68.4138 287.459 69.0696 286.343 70.2083C285.227 71.347 284.601 72.878 284.601 74.4726C284.601 76.0671 285.227 77.5981 286.343 78.7368C287.459 79.8756 288.977 80.5313 290.571 80.5632H292.288C292.435 80.5632 292.575 80.6216 292.679 80.7254C292.783 80.8293 292.841 80.9701 292.841 81.1169C292.841 81.2638 292.783 81.4046 292.679 81.5085C292.575 81.6123 292.435 81.6706 292.288 81.6706H290.571C288.683 81.6387 286.883 80.8663 285.56 79.5199C284.236 78.1734 283.494 76.3608 283.494 74.4726C283.494 72.5843 284.236 70.7717 285.56 69.4252C286.883 68.0788 288.683 67.3064 290.571 67.2745H291.985C292.686 65.7895 293.793 64.5334 295.179 63.6515C296.564 62.7696 298.171 62.298 299.813 62.2912C302.046 62.3116 304.187 63.1817 305.802 64.7245C307.416 66.2672 308.383 68.3669 308.504 70.5967H309.055C310.507 70.6206 311.893 71.2145 312.911 72.2503C313.93 73.2861 314.501 74.6808 314.501 76.1337C314.501 77.5865 313.93 78.9812 312.911 80.017C311.893 81.0528 310.507 81.6467 309.055 81.6706V81.6706Z" fill="#3F3D56"/>
<path d="M298.859 80.2864C299.547 80.2864 300.105 79.7286 300.105 79.0406C300.105 78.3525 299.547 77.7948 298.859 77.7948C298.171 77.7948 297.613 78.3525 297.613 79.0406C297.613 79.7286 298.171 80.2864 298.859 80.2864Z" fill="#3F3D56"/>
<path d="M303.012 81.9475C303.7 81.9475 304.258 81.3897 304.258 80.7017C304.258 80.0136 303.7 79.4558 303.012 79.4558C302.324 79.4558 301.766 80.0136 301.766 80.7017C301.766 81.3897 302.324 81.9475 303.012 81.9475Z" fill="#3F3D56"/>
<path d="M296.091 83.8854C296.779 83.8854 297.336 83.3277 297.336 82.6396C297.336 81.9516 296.779 81.3938 296.091 81.3938C295.403 81.3938 294.845 81.9516 294.845 82.6396C294.845 83.3277 295.403 83.8854 296.091 83.8854Z" fill="#3F3D56"/>
<path d="M300.52 86.6539C301.208 86.6539 301.766 86.0962 301.766 85.4081C301.766 84.7201 301.208 84.1623 300.52 84.1623C299.832 84.1623 299.274 84.7201 299.274 85.4081C299.274 86.0962 299.832 86.6539 300.52 86.6539Z" fill="#3F3D56"/>
<path d="M64.7828 39.5895H32.6683C31.4935 39.5895 30.3668 39.1228 29.5361 38.2921C28.7054 37.4614 28.2387 36.3347 28.2387 35.1599C28.2387 33.9851 28.7054 32.8584 29.5361 32.0277C30.3668 31.197 31.4935 30.7303 32.6683 30.7303H64.7828C65.9576 30.7303 67.0843 31.197 67.915 32.0277C68.7457 32.8584 69.2124 33.9851 69.2124 35.1599C69.2124 36.3347 68.7457 37.4614 67.915 38.2921C67.0843 39.1228 65.9576 39.5895 64.7828 39.5895Z" fill="#4B519F"/>
<path d="M127.351 39.5895H95.2363C94.0615 39.5895 92.9348 39.1228 92.1041 38.2921C91.2734 37.4614 90.8067 36.3347 90.8067 35.1599C90.8067 33.9851 91.2734 32.8584 92.1041 32.0277C92.9348 31.197 94.0615 30.7303 95.2363 30.7303H127.351C128.526 30.7303 129.652 31.197 130.483 32.0277C131.314 32.8584 131.78 33.9851 131.78 35.1599C131.78 36.3347 131.314 37.4614 130.483 38.2921C129.652 39.1228 128.526 39.5895 127.351 39.5895Z" fill="#4B519F"/>
<path d="M189.919 39.5895H157.804C156.63 39.5895 155.503 39.1228 154.672 38.2921C153.841 37.4614 153.375 36.3347 153.375 35.1599C153.375 33.9851 153.841 32.8584 154.672 32.0277C155.503 31.197 156.63 30.7303 157.804 30.7303H189.919C191.094 30.7303 192.22 31.197 193.051 32.0277C193.882 32.8584 194.348 33.9851 194.348 35.1599C194.348 36.3347 193.882 37.4614 193.051 38.2921C192.22 39.1228 191.094 39.5895 189.919 39.5895Z" fill="#4B519F"/>
<path d="M252.487 39.5895H220.372C219.198 39.5895 218.071 39.1228 217.24 38.2921C216.409 37.4614 215.943 36.3347 215.943 35.1599C215.943 33.9851 216.409 32.8584 217.24 32.0277C218.071 31.197 219.198 30.7303 220.372 30.7303H252.487C253.662 30.7303 254.788 31.197 255.619 32.0277C256.45 32.8584 256.916 33.9851 256.916 35.1599C256.916 36.3347 256.45 37.4614 255.619 38.2921C254.788 39.1228 253.662 39.5895 252.487 39.5895Z" fill="#4B519F"/>
<path d="M315.055 39.5895H282.94C281.766 39.5895 280.639 39.1228 279.808 38.2921C278.977 37.4614 278.511 36.3347 278.511 35.1599C278.511 33.9851 278.977 32.8584 279.808 32.0277C280.639 31.197 281.766 30.7303 282.94 30.7303H315.055C316.23 30.7303 317.356 31.197 318.187 32.0277C319.018 32.8584 319.484 33.9851 319.484 35.1599C319.484 36.3347 319.018 37.4614 318.187 38.2921C317.356 39.1228 316.23 39.5895 315.055 39.5895Z" fill="#4B519F"/>
<path d="M78.6253 91.6372C78.4784 91.6372 78.3376 91.5789 78.2338 91.4751C78.1299 91.3712 78.0716 91.2304 78.0716 91.0835V49.0024C78.0716 48.8555 78.1299 48.7147 78.2338 48.6109C78.3376 48.507 78.4784 48.4487 78.6253 48.4487C78.7721 48.4487 78.913 48.507 79.0168 48.6109C79.1206 48.7147 79.179 48.8555 79.179 49.0024V91.0835C79.179 91.2304 79.1206 91.3712 79.0168 91.4751C78.913 91.5789 78.7721 91.6372 78.6253 91.6372Z" fill="#C5C7E2"/>
<path d="M141.193 91.0835C141.046 91.0835 140.906 91.0252 140.802 90.9213C140.698 90.8175 140.64 90.6767 140.64 90.5298V48.4487C140.64 48.3018 140.698 48.161 140.802 48.0572C140.906 47.9533 141.046 47.895 141.193 47.895C141.34 47.895 141.481 47.9533 141.585 48.0572C141.689 48.161 141.747 48.3018 141.747 48.4487V90.5298C141.747 90.6767 141.689 90.8175 141.585 90.9213C141.481 91.0252 141.34 91.0835 141.193 91.0835Z" fill="#C5C7E2"/>
<path d="M207.084 91.0835C206.937 91.0835 206.796 91.0252 206.692 90.9213C206.588 90.8175 206.53 90.6767 206.53 90.5298V48.4487C206.53 48.3018 206.588 48.161 206.692 48.0572C206.796 47.9533 206.937 47.895 207.084 47.895C207.23 47.895 207.371 47.9533 207.475 48.0572C207.579 48.161 207.637 48.3018 207.637 48.4487V90.5298C207.637 90.6767 207.579 90.8175 207.475 90.9213C207.371 91.0252 207.23 91.0835 207.084 91.0835Z" fill="#C5C7E2"/>
<path d="M269.652 91.0835C269.505 91.0835 269.364 91.0252 269.26 90.9213C269.156 90.8175 269.098 90.6767 269.098 90.5298V48.4487C269.098 48.3018 269.156 48.161 269.26 48.0572C269.364 47.9533 269.505 47.895 269.652 47.895C269.798 47.895 269.939 47.9533 270.043 48.0572C270.147 48.161 270.205 48.3018 270.205 48.4487V90.5298C270.205 90.6767 270.147 90.8175 270.043 90.9213C269.939 91.0252 269.798 91.0835 269.652 91.0835Z" fill="#C5C7E2"/>
</svg>
